<?xml version="1.0" encoding="UTF-8"?>
<!DOCTYPE svg PUBLIC "-//W3C//DTD SVG 1.1//EN" "http://www.w3.org/Graphics/SVG/1.1/DTD/svg11.dtd">
<svg xmlns="http://www.w3.org/2000/svg" version="1.1" width="734px" height="96px" style="shape-rendering:geometricPrecision; text-rendering:geometricPrecision; image-rendering:optimizeQuality; fill-rule:evenodd; clip-rule:evenodd" xmlns:xlink="http://www.w3.org/1999/xlink">
<g><path style="opacity:1" fill="#2e2f3a" d="M -0.5,-0.5 C 244.167,-0.5 488.833,-0.5 733.5,-0.5C 733.5,31.5 733.5,63.5 733.5,95.5C 488.833,95.5 244.167,95.5 -0.5,95.5C -0.5,63.5 -0.5,31.5 -0.5,-0.5 Z"/></g>
<g><path style="opacity:1" fill="#2456b2" d="M 158.5,17.5 C 158.783,18.2891 159.283,18.9558 160,19.5C 160.499,14.8452 160.666,10.1785 160.5,5.5C 181.833,5.5 203.167,5.5 224.5,5.5C 224.5,10.8333 224.5,16.1667 224.5,21.5C 216.648,21.1746 208.982,21.508 201.5,22.5C 201.5,45.5 201.5,68.5 201.5,91.5C 195.5,91.5 189.5,91.5 183.5,91.5C 183.5,68.5 183.5,45.5 183.5,22.5C 176.345,21.3448 169.012,21.1782 161.5,22C 162.044,22.7172 162.711,23.2172 163.5,23.5C 159.153,27.1642 154.487,30.4975 149.5,33.5C 141.583,24.1382 131.583,20.6382 119.5,23C 100.97,31.5659 96.1362,45.0659 105,63.5C 115.595,75.6864 128.095,77.8531 142.5,70C 144.683,67.6496 147.016,65.483 149.5,63.5C 154.303,66.4711 158.97,69.6377 163.5,73C 147.867,92.6623 128.534,97.329 105.5,87C 82.4424,70.6886 77.2757,49.8553 90,24.5C 105.522,3.88566 125.022,-0.947678 148.5,10C 152.042,12.2657 155.375,14.7657 158.5,17.5 Z"/></g>
<g><path style="opacity:1" fill="#2456b3" d="M 86.5,90.5 C 80.69,91.4896 74.69,91.8229 68.5,91.5C 61.8361,71.6772 54.6694,52.0106 47,32.5C 41.7992,44.9367 37.2992,57.6034 33.5,70.5C 30.4623,77.2685 27.7956,84.2685 25.5,91.5C 19.31,91.8229 13.31,91.4896 7.5,90.5C 17.7087,62.4115 28.2087,34.4115 39,6.5C 44.3333,5.16667 49.6667,5.16667 55,6.5C 65.8052,34.4192 76.3052,62.4192 86.5,90.5 Z"/></g>
<g><path style="opacity:1" fill="#27395c" d="M 160.5,5.5 C 160.666,10.1785 160.499,14.8452 160,19.5C 159.283,18.9558 158.783,18.2891 158.5,17.5C 159.167,13.5 159.833,9.5 160.5,5.5 Z"/></g>
<g><path style="opacity:1" fill="#263d63" d="M 245.5,6.5 C 246.209,5.59603 247.209,5.26269 248.5,5.5C 248.831,34.3382 248.498,63.0049 247.5,91.5C 248.158,62.8136 247.492,34.4803 245.5,6.5 Z"/></g>
<g><path style="opacity:1" fill="#2456b3" d="M 252.5,5.5 C 258.833,5.5 265.167,5.5 271.5,5.5C 277.371,24.1136 284.038,42.4469 291.5,60.5C 298.618,42.6504 305.452,24.6504 312,6.5C 318.076,5.52364 324.242,5.19031 330.5,5.5C 320.109,33.8365 309.609,62.1698 299,90.5C 294.218,91.8023 289.385,91.8023 284.5,90.5C 273.433,62.2983 262.767,33.965 252.5,5.5 Z"/></g>
<g><path style="opacity:1" fill="#2456b5" d="M 389.5,5.5 C 389.5,10.8333 389.5,16.1667 389.5,21.5C 371.167,21.5 352.833,21.5 334.5,21.5C 334.5,16.1667 334.5,10.8333 334.5,5.5C 352.833,5.5 371.167,5.5 389.5,5.5 Z"/></g>
<g><path style="opacity:1" fill="#2456b3" d="M 471.5,91.5 C 465.077,91.7912 458.744,91.4578 452.5,90.5C 446.218,71.1523 439.051,52.1523 431,33.5C 423.607,52.3461 416.607,71.3461 410,90.5C 403.889,91.8087 397.722,91.8087 391.5,90.5C 401.97,62.422 412.637,34.422 423.5,6.5C 428.792,5.50515 434.125,5.17182 439.5,5.5C 449.967,34.2321 460.633,62.8988 471.5,91.5 Z"/></g>
<g><path style="opacity:1" fill="#2456b2" d="M 474.5,5.5 C 487.504,5.33344 500.504,5.50011 513.5,6C 531.331,11.1995 538.497,23.0328 535,41.5C 531.761,51.7378 524.928,58.2378 514.5,61C 509.845,61.4992 505.179,61.6658 500.5,61.5C 500.5,56.1667 500.5,50.8333 500.5,45.5C 514.033,46.478 519.533,40.478 517,27.5C 515.457,25.6217 513.624,24.1217 511.5,23C 505.175,22.5005 498.842,22.3338 492.5,22.5C 492.5,45.5 492.5,68.5 492.5,91.5C 486.5,91.5 480.5,91.5 474.5,91.5C 474.5,62.8333 474.5,34.1667 474.5,5.5 Z"/></g>
<g><path style="opacity:1" fill="#2456b4" d="M 576.5,22.5 C 571.025,21.5111 565.358,21.1778 559.5,21.5C 559.5,44.8333 559.5,68.1667 559.5,91.5C 553.833,91.5 548.167,91.5 542.5,91.5C 542.5,62.8333 542.5,34.1667 542.5,5.5C 556.892,5.06964 571.226,5.56964 585.5,7C 600.431,13.6934 606.265,25.1934 603,41.5C 599.658,52.1739 592.491,58.6739 581.5,61C 577.179,61.499 572.846,61.6657 568.5,61.5C 568.5,56.1667 568.5,50.8333 568.5,45.5C 582.817,46.3652 587.983,40.0318 584,26.5C 582.059,24.1299 579.559,22.7966 576.5,22.5 Z"/></g>
<g><path style="opacity:1" fill="#283754" d="M 627.5,5.5 C 628.498,28.3273 628.831,51.3273 628.5,74.5C 641.344,74.1713 654.011,74.5046 666.5,75.5C 653.5,75.5 640.5,75.5 627.5,75.5C 627.5,52.1667 627.5,28.8333 627.5,5.5 Z"/></g>
<g><path style="opacity:1" fill="#2356b2" d="M 651.5,6.5 C 657.987,5.34602 664.654,5.17935 671.5,6C 677.389,15.6206 683.389,25.1206 689.5,34.5C 696.059,25.4229 702.059,15.9229 707.5,6C 714.192,5.16915 720.858,5.33581 727.5,6.5C 718.251,22.001 708.751,37.3343 699,52.5C 698.5,65.4957 698.333,78.4957 698.5,91.5C 692.5,91.5 686.5,91.5 680.5,91.5C 680.667,78.4957 680.5,65.4957 680,52.5C 670.637,36.9943 661.137,21.6609 651.5,6.5 Z"/></g>
<g><path style="opacity:1" fill="#2456b4" d="M 245.5,6.5 C 247.492,34.4803 248.158,62.8136 247.5,91.5C 241.833,91.5 236.167,91.5 230.5,91.5C 230.167,64.4918 230.5,37.4918 231.5,10.5C 236.121,8.95901 240.788,7.62568 245.5,6.5 Z"/></g>
<g><path style="opacity:1" fill="#2456b4" d="M 627.5,5.5 C 627.5,28.8333 627.5,52.1667 627.5,75.5C 640.5,75.5 653.5,75.5 666.5,75.5C 666.5,80.8333 666.5,86.1667 666.5,91.5C 647.833,91.5 629.167,91.5 610.5,91.5C 610.167,64.4918 610.5,37.4918 611.5,10.5C 616.846,8.82897 622.179,7.1623 627.5,5.5 Z"/></g>
<g><path style="opacity:1" fill="#234277" d="M 183.5,22.5 C 176.646,22.176 169.979,22.5093 163.5,23.5C 162.711,23.2172 162.044,22.7172 161.5,22C 169.012,21.1782 176.345,21.3448 183.5,22.5 Z"/></g>
<g><path style="opacity:1" fill="#243f6f" d="M 224.5,5.5 C 225.489,10.9753 225.822,16.642 225.5,22.5C 217.5,22.5 209.5,22.5 201.5,22.5C 208.982,21.508 216.648,21.1746 224.5,21.5C 224.5,16.1667 224.5,10.8333 224.5,5.5 Z"/></g>
<g><path style="opacity:1" fill="#224279" d="M 389.5,5.5 C 390.489,10.9753 390.822,16.642 390.5,22.5C 371.659,22.8302 352.993,22.4969 334.5,21.5C 352.833,21.5 371.167,21.5 389.5,21.5C 389.5,16.1667 389.5,10.8333 389.5,5.5 Z"/></g>
<g><path style="opacity:1" fill="#253e6c" d="M 576.5,22.5 C 571.167,22.5 565.833,22.5 560.5,22.5C 560.831,45.6727 560.498,68.6727 559.5,91.5C 559.5,68.1667 559.5,44.8333 559.5,21.5C 565.358,21.1778 571.025,21.5111 576.5,22.5 Z"/></g>
<g><path style="opacity:1" fill="#2456b5" d="M 389.5,40.5 C 389.5,45.8333 389.5,51.1667 389.5,56.5C 371.167,56.5 352.833,56.5 334.5,56.5C 334.5,51.1667 334.5,45.8333 334.5,40.5C 352.833,40.5 371.167,40.5 389.5,40.5 Z"/></g>
<g><path style="opacity:1" fill="#224279" d="M 389.5,40.5 C 390.489,45.9753 390.822,51.642 390.5,57.5C 371.659,57.8302 352.993,57.4969 334.5,56.5C 352.833,56.5 371.167,56.5 389.5,56.5C 389.5,51.1667 389.5,45.8333 389.5,40.5 Z"/></g>
<g><path style="opacity:1" fill="#5ab8e8" d="M 33.5,70.5 C 42.5062,70.3336 51.5062,70.5002 60.5,71C 56.3728,78.0903 51.8728,84.9236 47,91.5C 42.4894,84.4717 37.9894,77.4717 33.5,70.5 Z"/></g>
<g><path style="opacity:1" fill="#5ab8e8" d="M 418.5,70.5 C 427.192,70.1686 435.859,70.502 444.5,71.5C 440.167,78.1667 435.833,84.8333 431.5,91.5C 426.717,84.7301 422.384,77.7301 418.5,70.5 Z"/></g>
<g><path style="opacity:1" fill="#224c92" d="M 334.5,76.5 C 352.993,75.5031 371.659,75.1698 390.5,75.5C 390.821,81.0262 390.488,86.3595 389.5,91.5C 389.5,86.5 389.5,81.5 389.5,76.5C 371.167,76.5 352.833,76.5 334.5,76.5 Z"/></g>
<g><path style="opacity:1" fill="#2456b5" d="M 334.5,76.5 C 352.833,76.5 371.167,76.5 389.5,76.5C 389.5,81.5 389.5,86.5 389.5,91.5C 371.167,91.5 352.833,91.5 334.5,91.5C 334.5,86.5 334.5,81.5 334.5,76.5 Z"/></g>
<g><path style="opacity:1" fill="#283758" d="M 7.5,90.5 C 13.31,91.4896 19.31,91.8229 25.5,91.5C 19.3217,92.8174 12.9883,92.8174 6.5,91.5C 6.62358,90.8933 6.95691,90.56 7.5,90.5 Z"/></g>
<g><path style="opacity:1" fill="#283858" d="M 86.5,90.5 C 87.0431,90.56 87.3764,90.8933 87.5,91.5C 81.0117,92.8174 74.6783,92.8174 68.5,91.5C 74.69,91.8229 80.69,91.4896 86.5,90.5 Z"/></g>
<g><path style="opacity:1" fill="#283758" d="M 452.5,90.5 C 458.744,91.4578 465.077,91.7912 471.5,91.5C 468.518,92.1649 465.352,92.4982 462,92.5C 458.424,92.4848 455.258,91.8182 452.5,90.5 Z"/></g>
</svg>
