<?xml version="1.0" encoding="UTF-8"?>
<!DOCTYPE svg PUBLIC "-//W3C//DTD SVG 1.1//EN" "http://www.w3.org/Graphics/SVG/1.1/DTD/svg11.dtd">
<svg xmlns="http://www.w3.org/2000/svg" version="1.1" width="710px" height="104px" style="shape-rendering:geometricPrecision; text-rendering:geometricPrecision; image-rendering:optimizeQuality; fill-rule:evenodd; clip-rule:evenodd" xmlns:xlink="http://www.w3.org/1999/xlink">
<g><path style="opacity:1" fill="#121826" d="M -0.5,-0.5 C 236.167,-0.5 472.833,-0.5 709.5,-0.5C 709.5,34.1667 709.5,68.8333 709.5,103.5C 472.833,103.5 236.167,103.5 -0.5,103.5C -0.5,68.8333 -0.5,34.1667 -0.5,-0.5 Z"/></g>
<g><path style="opacity:1" fill="#2357b2" d="M 159.5,21.5 C 159.783,22.2891 160.283,22.9558 161,23.5C 161.499,19.1794 161.666,14.8461 161.5,10.5C 181.5,10.5 201.5,10.5 221.5,10.5C 221.5,15.5 221.5,20.5 221.5,25.5C 214.167,25.5 206.833,25.5 199.5,25.5C 198.503,46.9936 198.169,68.6602 198.5,90.5C 193.5,90.5 188.5,90.5 183.5,90.5C 183.5,68.5 183.5,46.5 183.5,24.5C 176.468,24.1697 169.468,24.503 162.5,25.5C 162.624,26.1067 162.957,26.44 163.5,26.5C 159.825,30.0965 155.658,33.0965 151,35.5C 146.577,31.7055 141.744,28.5388 136.5,26C 121.353,23.6533 110.853,29.4867 105,43.5C 102.458,59.5804 108.958,70.0804 124.5,75C 135.052,76.2256 143.719,72.7256 150.5,64.5C 155.132,67.1427 159.465,70.1427 163.5,73.5C 152.89,88.1291 138.556,93.9624 120.5,91C 96.2185,82.9642 85.7185,66.1309 89,40.5C 95.2402,20.7701 108.74,10.1034 129.5,8.5C 141.467,8.59009 151.467,12.9234 159.5,21.5 Z"/></g>
<g><path style="opacity:1" fill="#1f4790" d="M 221.5,10.5 C 201.5,10.5 181.5,10.5 161.5,10.5C 161.666,14.8461 161.499,19.1794 161,23.5C 160.283,22.9558 159.783,22.2891 159.5,21.5C 160.483,17.7016 160.817,13.7016 160.5,9.5C 181.007,9.1695 201.34,9.50283 221.5,10.5 Z"/></g>
<g><path style="opacity:1" fill="#1f458b" d="M 377.5,10.5 C 360.167,10.5 342.833,10.5 325.5,10.5C 325.5,15.1667 325.5,19.8333 325.5,24.5C 342.833,24.5 360.167,24.5 377.5,24.5C 360.008,25.4967 342.341,25.8301 324.5,25.5C 324.5,20.1667 324.5,14.8333 324.5,9.5C 342.341,9.16995 360.008,9.50328 377.5,10.5 Z"/></g>
<g><path style="opacity:1" fill="#2356b1" d="M 67.5,71.5 C 67.5,70.8333 67.1667,70.5 66.5,70.5C 62.9113,58.6501 58.7446,46.9834 54,35.5C 49.7397,46.7789 45.5731,58.1123 41.5,69.5C 40.6618,69.8417 40.3284,70.5084 40.5,71.5C 37.9433,77.8772 35.6099,84.3772 33.5,91C 27.8431,91.4994 22.1764,91.6661 16.5,91.5C 25.7109,64.1998 35.7109,37.1998 46.5,10.5C 51.456,9.50585 56.456,9.17252 61.5,9.5C 71.5,36.8333 81.5,64.1667 91.5,91.5C 85.7945,91.8288 80.1278,91.4954 74.5,90.5C 71.9614,84.2151 69.6281,77.8818 67.5,71.5 Z"/></g>
<g><path style="opacity:1" fill="#2357b4" d="M 243.5,90.5 C 238.167,90.5 232.833,90.5 227.5,90.5C 227.5,65.1667 227.5,39.8333 227.5,14.5C 232.55,13.0387 237.55,11.3721 242.5,9.5C 243.5,36.4918 243.833,63.4918 243.5,90.5 Z"/></g>
<g><path style="opacity:1" fill="#2356b1" d="M 247.5,9.5 C 253.5,9.5 259.5,9.5 265.5,9.5C 271.442,27.3824 277.942,45.049 285,62.5C 291.308,45.2063 297.641,27.873 304,10.5C 309.741,9.5251 315.575,9.19177 321.5,9.5C 312.188,36.5944 302.355,63.5944 292,90.5C 287.333,91.8333 282.667,91.8333 278,90.5C 267.82,63.4789 257.653,36.4789 247.5,9.5 Z"/></g>
<g><path style="opacity:1" fill="#2457b5" d="M 377.5,10.5 C 377.5,15.1667 377.5,19.8333 377.5,24.5C 360.167,24.5 342.833,24.5 325.5,24.5C 325.5,19.8333 325.5,15.1667 325.5,10.5C 342.833,10.5 360.167,10.5 377.5,10.5 Z"/></g>
<g><path style="opacity:1" fill="#2356b1" d="M 430.5,71.5 C 430.5,70.8333 430.167,70.5 429.5,70.5C 425.64,58.7547 421.473,47.088 417,35.5C 412.728,46.8185 408.561,58.1518 404.5,69.5C 403.662,69.8417 403.328,70.5084 403.5,71.5C 401.37,77.8867 399.037,84.22 396.5,90.5C 390.872,91.4954 385.206,91.8288 379.5,91.5C 379.5,90.8333 379.5,90.1667 379.5,89.5C 389.228,63.1516 399.061,36.8183 409,10.5C 414.072,9.52865 419.238,9.19532 424.5,9.5C 434.303,36.91 444.303,64.2434 454.5,91.5C 448.794,91.8288 443.128,91.4954 437.5,90.5C 434.963,84.22 432.63,77.8867 430.5,71.5 Z"/></g>
<g><path style="opacity:1" fill="#1e4387" d="M 492.5,10.5 C 481.167,10.5 469.833,10.5 458.5,10.5C 458.5,37.1667 458.5,63.8333 458.5,90.5C 463.5,90.5 468.5,90.5 473.5,90.5C 473.169,68.6602 473.503,46.9936 474.5,25.5C 474.5,47.5 474.5,69.5 474.5,91.5C 468.833,91.5 463.167,91.5 457.5,91.5C 457.5,64.1667 457.5,36.8333 457.5,9.5C 469.345,9.17174 481.012,9.50507 492.5,10.5 Z"/></g>
<g><path style="opacity:1" fill="#2357b3" d="M 492.5,10.5 C 504.663,11.3292 512.163,17.6625 515,29.5C 517.552,49.7558 508.719,60.7558 488.5,62.5C 486.5,62.5 484.5,62.5 482.5,62.5C 482.5,57.5 482.5,52.5 482.5,47.5C 496.428,47.6102 500.928,41.2769 496,28.5C 494.581,27.5399 493.081,26.7065 491.5,26C 485.843,25.5006 480.176,25.3339 474.5,25.5C 473.503,46.9936 473.169,68.6602 473.5,90.5C 468.5,90.5 463.5,90.5 458.5,90.5C 458.5,63.8333 458.5,37.1667 458.5,10.5C 469.833,10.5 481.167,10.5 492.5,10.5 Z"/></g>
<g><path style="opacity:1" fill="#1e4387" d="M 556.5,10.5 C 545.167,10.5 533.833,10.5 522.5,10.5C 522.5,37.1667 522.5,63.8333 522.5,90.5C 527.5,90.5 532.5,90.5 537.5,90.5C 537.169,68.6602 537.503,46.9936 538.5,25.5C 538.5,47.5 538.5,69.5 538.5,91.5C 532.833,91.5 527.167,91.5 521.5,91.5C 521.5,64.1667 521.5,36.8333 521.5,9.5C 533.345,9.17174 545.012,9.50507 556.5,10.5 Z"/></g>
<g><path style="opacity:1" fill="#2357b3" d="M 556.5,10.5 C 573.894,12.921 581.394,22.921 579,40.5C 577.405,52.0958 570.905,59.2624 559.5,62C 555.179,62.499 550.846,62.6657 546.5,62.5C 546.5,57.5 546.5,52.5 546.5,47.5C 560.712,47.8114 565.212,41.478 560,28.5C 558.581,27.5399 557.081,26.7065 555.5,26C 549.843,25.5006 544.176,25.3339 538.5,25.5C 537.503,46.9936 537.169,68.6602 537.5,90.5C 532.5,90.5 527.5,90.5 522.5,90.5C 522.5,63.8333 522.5,37.1667 522.5,10.5C 533.833,10.5 545.167,10.5 556.5,10.5 Z"/></g>
<g><path style="opacity:1" fill="#2357b4" d="M 600.5,10.5 C 601.167,32.1667 601.833,53.8333 602.5,75.5C 614.5,75.5 626.5,75.5 638.5,75.5C 638.5,80.5 638.5,85.5 638.5,90.5C 621.167,90.5 603.833,90.5 586.5,90.5C 586.5,65.1667 586.5,39.8333 586.5,14.5C 591.113,13.0427 595.779,11.7093 600.5,10.5 Z"/></g>
<g><path style="opacity:1" fill="#1f478f" d="M 600.5,10.5 C 600.56,9.95691 600.893,9.62358 601.5,9.5C 602.5,31.4899 602.833,53.4899 602.5,75.5C 601.833,53.8333 601.167,32.1667 600.5,10.5 Z"/></g>
<g><path style="opacity:1" fill="#2356b1" d="M 624.5,9.5 C 630.842,9.33379 637.175,9.50046 643.5,10C 649.459,19.4164 655.292,28.9164 661,38.5C 666.078,28.7557 671.578,19.2557 677.5,10C 683.859,9.16941 690.193,9.33608 696.5,10.5C 687.584,25.3348 678.417,40.0015 669,54.5C 668.5,66.8288 668.333,79.1622 668.5,91.5C 663.167,91.5 657.833,91.5 652.5,91.5C 652.667,79.1622 652.5,66.8288 652,54.5C 642.309,39.7779 633.142,24.7779 624.5,9.5 Z"/></g>
<g><path style="opacity:1" fill="#1f4790" d="M 586.5,14.5 C 586.5,39.8333 586.5,65.1667 586.5,90.5C 603.833,90.5 621.167,90.5 638.5,90.5C 621.008,91.4967 603.341,91.8301 585.5,91.5C 585.169,65.6612 585.502,39.9946 586.5,14.5 Z"/></g>
<g><path style="opacity:1" fill="#1c3b74" d="M 183.5,90.5 C 183.5,90.8333 183.5,91.1667 183.5,91.5C 182.503,69.673 182.169,47.673 182.5,25.5C 175.978,25.1765 169.645,25.5098 163.5,26.5C 162.957,26.44 162.624,26.1067 162.5,25.5C 169.468,24.503 176.468,24.1697 183.5,24.5C 183.5,46.5 183.5,68.5 183.5,90.5 Z"/></g>
<g><path style="opacity:1" fill="#1f4790" d="M 199.5,25.5 C 199.5,47.5 199.5,69.5 199.5,91.5C 194.167,91.5 188.833,91.5 183.5,91.5C 183.5,91.1667 183.5,90.8333 183.5,90.5C 188.5,90.5 193.5,90.5 198.5,90.5C 198.169,68.6602 198.503,46.9936 199.5,25.5 Z"/></g>
<g><path style="opacity:1" fill="#121827" d="M 66.5,70.5 C 57.9832,70.8261 49.6499,70.4927 41.5,69.5C 45.5731,58.1123 49.7397,46.7789 54,35.5C 58.7446,46.9834 62.9113,58.6501 66.5,70.5 Z"/></g>
<g><path style="opacity:1" fill="#121827" d="M 429.5,70.5 C 420.983,70.8261 412.65,70.4927 404.5,69.5C 408.561,58.1518 412.728,46.8185 417,35.5C 421.473,47.088 425.64,58.7547 429.5,70.5 Z"/></g>
<g><path style="opacity:1" fill="#1f458b" d="M 377.5,43.5 C 360.167,43.5 342.833,43.5 325.5,43.5C 325.5,48.1667 325.5,52.8333 325.5,57.5C 342.833,57.5 360.167,57.5 377.5,57.5C 360.008,58.4967 342.341,58.8301 324.5,58.5C 324.5,53.1667 324.5,47.8333 324.5,42.5C 342.341,42.1699 360.008,42.5033 377.5,43.5 Z"/></g>
<g><path style="opacity:1" fill="#2457b5" d="M 377.5,43.5 C 377.5,48.1667 377.5,52.8333 377.5,57.5C 360.167,57.5 342.833,57.5 325.5,57.5C 325.5,52.8333 325.5,48.1667 325.5,43.5C 342.833,43.5 360.167,43.5 377.5,43.5 Z"/></g>
<g><path style="opacity:1" fill="#1a3465" d="M 482.5,47.5 C 482.5,52.5 482.5,57.5 482.5,62.5C 484.5,62.5 486.5,62.5 488.5,62.5C 486.393,63.4682 484.059,63.8016 481.5,63.5C 481.179,57.9738 481.512,52.6405 482.5,47.5 Z"/></g>
<g><path style="opacity:1" fill="#315e7c" d="M 41.5,69.5 C 49.6499,70.4927 57.9832,70.8261 66.5,70.5C 67.1667,70.5 67.5,70.8333 67.5,71.5C 67.1667,71.5 66.8333,71.5 66.5,71.5C 58.1667,71.5 49.8333,71.5 41.5,71.5C 41.1667,71.5 40.8333,71.5 40.5,71.5C 40.3284,70.5084 40.6618,69.8417 41.5,69.5 Z"/></g>
<g><path style="opacity:1" fill="#315e7c" d="M 404.5,69.5 C 412.65,70.4927 420.983,70.8261 429.5,70.5C 430.167,70.5 430.5,70.8333 430.5,71.5C 429.833,71.8333 429.167,72.1667 428.5,72.5C 420.684,71.5076 412.684,71.1743 404.5,71.5C 404.167,71.5 403.833,71.5 403.5,71.5C 403.328,70.5084 403.662,69.8417 404.5,69.5 Z"/></g>
<g><path style="opacity:1" fill="#5ab6e7" d="M 41.5,71.5 C 49.8333,71.5 58.1667,71.5 66.5,71.5C 62.1621,78.0163 57.9954,84.6829 54,91.5C 50.0046,84.6829 45.8379,78.0163 41.5,71.5 Z"/></g>
<g><path style="opacity:1" fill="#5ab6e7" d="M 404.5,71.5 C 412.684,71.1743 420.684,71.5076 428.5,72.5C 424.678,78.8055 420.845,85.1389 417,91.5C 412.572,84.9735 408.405,78.3068 404.5,71.5 Z"/></g>
<g><path style="opacity:1" fill="#1a376d" d="M 377.5,76.5 C 360.167,76.5 342.833,76.5 325.5,76.5C 325.5,81.5 325.5,86.5 325.5,91.5C 324.512,86.3595 324.179,81.0262 324.5,75.5C 342.341,75.1699 360.008,75.5033 377.5,76.5 Z"/></g>
<g><path style="opacity:1" fill="#2356b2" d="M 377.5,76.5 C 377.5,81.5 377.5,86.5 377.5,91.5C 360.167,91.5 342.833,91.5 325.5,91.5C 325.5,86.5 325.5,81.5 325.5,76.5C 342.833,76.5 360.167,76.5 377.5,76.5 Z"/></g>
<g><path style="opacity:1" fill="#17284a" d="M 377.5,76.5 C 378.167,80.8333 378.833,85.1667 379.5,89.5C 379.5,90.1667 379.5,90.8333 379.5,91.5C 378.833,91.5 378.167,91.5 377.5,91.5C 377.5,86.5 377.5,81.5 377.5,76.5 Z"/></g>
<g><path style="opacity:1" fill="#1c386f" d="M 227.5,14.5 C 227.5,39.8333 227.5,65.1667 227.5,90.5C 232.833,90.5 238.167,90.5 243.5,90.5C 238.025,91.4889 232.358,91.8222 226.5,91.5C 226.169,65.6612 226.502,39.9946 227.5,14.5 Z"/></g>
</svg>
